<?xml version="1.0" encoding="utf-8" standalone="no"?>
<!DOCTYPE svg PUBLIC "-//W3C//DTD SVG 1.1//EN"
  "http://www.w3.org/Graphics/SVG/1.1/DTD/svg11.dtd">
<!-- Created with matplotlib (http://matplotlib.org/) -->
<svg height="432pt" version="1.1" viewBox="0 0 576 432" width="576pt" xmlns="http://www.w3.org/2000/svg" xmlns:xlink="http://www.w3.org/1999/xlink">
 <defs>
  <style type="text/css">
*{stroke-linecap:butt;stroke-linejoin:round;}
  </style>
 </defs>
 <g id="figure_1">
  <g id="patch_1">
   <path d="
M0 432
L576 432
L576 0
L0 0
z
" style="fill:#ffffff;"/>
  </g>
  <g id="axes_1">
   <g id="patch_2">
    <path d="
M86.4 388.8
L518.4 388.8
L518.4 43.2
L86.4 43.2
z
" style="fill:#ffffff;"/>
   </g>
   <g id="patch_3">
    <path clip-path="url(#p01a569de64)" d="
M89.6653 388.8
L93.5461 388.8
L93.5461 388.658
L89.6653 388.658
z
" style="fill:#60a0d0;"/>
   </g>
   <g id="patch_4">
    <path clip-path="url(#p01a569de64)" d="
M93.5461 388.8
L97.4268 388.8
L97.4268 388.586
L93.5461 388.586
z
" style="fill:#60a0d0;"/>
   </g>
   <g id="patch_5">
    <path clip-path="url(#p01a569de64)" d="
M97.4268 388.8
L101.308 388.8
L101.308 388.586
L97.4268 388.586
z
" style="fill:#60a0d0;"/>
   </g>
   <g id="patch_6">
    <path clip-path="url(#p01a569de64)" d="
M101.308 388.8
L105.188 388.8
L105.188 388.515
L101.308 388.515
z
" style="fill:#60a0d0;"/>
   </g>
   <g id="patch_7">
    <path clip-path="url(#p01a569de64)" d="
M105.188 388.8
L109.069 388.8
L109.069 388.444
L105.188 388.444
z
" style="fill:#60a0d0;"/>
   </g>
   <g id="patch_8">
    <path clip-path="url(#p01a569de64)" d="
M109.069 388.8
L112.95 388.8
L112.95 388.515
L109.069 388.515
z
" style="fill:#60a0d0;"/>
   </g>
   <g id="patch_9">
    <path clip-path="url(#p01a569de64)" d="
M112.95 388.8
L116.83 388.8
L116.83 388.515
L112.95 388.515
z
" style="fill:#60a0d0;"/>
   </g>
   <g id="patch_10">
    <path clip-path="url(#p01a569de64)" d="
M116.83 388.8
L120.711 388.8
L120.711 387.874
L116.83 387.874
z
" style="fill:#60a0d0;"/>
   </g>
   <g id="patch_11">
    <path clip-path="url(#p01a569de64)" d="
M120.711 388.8
L124.592 388.8
L124.592 387.233
L120.711 387.233
z
" style="fill:#60a0d0;"/>
   </g>
   <g id="patch_12">
    <path clip-path="url(#p01a569de64)" d="
M124.592 388.8
L128.473 388.8
L128.473 387.09
L124.592 387.09
z
" style="fill:#60a0d0;"/>
   </g>
   <g id="patch_13">
    <path clip-path="url(#p01a569de64)" d="
M128.473 388.8
L132.353 388.8
L132.353 386.021
L128.473 386.021
z
" style="fill:#60a0d0;"/>
   </g>
   <g id="patch_14">
    <path clip-path="url(#p01a569de64)" d="
M132.353 388.8
L136.234 388.8
L136.234 384.454
L132.353 384.454
z
" style="fill:#60a0d0;"/>
   </g>
   <g id="patch_15">
    <path clip-path="url(#p01a569de64)" d="
M136.234 388.8
L140.115 388.8
L140.115 381.747
L136.234 381.747
z
" style="fill:#60a0d0;"/>
   </g>
   <g id="patch_16">
    <path clip-path="url(#p01a569de64)" d="
M140.115 388.8
L143.996 388.8
L143.996 381.462
L140.115 381.462
z
" style="fill:#60a0d0;"/>
   </g>
   <g id="patch_17">
    <path clip-path="url(#p01a569de64)" d="
M143.996 388.8
L147.876 388.8
L147.876 377.971
L143.996 377.971
z
" style="fill:#60a0d0;"/>
   </g>
   <g id="patch_18">
    <path clip-path="url(#p01a569de64)" d="
M147.876 388.8
L151.757 388.8
L151.757 373.269
L147.876 373.269
z
" style="fill:#60a0d0;"/>
   </g>
   <g id="patch_19">
    <path clip-path="url(#p01a569de64)" d="
M151.757 388.8
L155.638 388.8
L155.638 364.078
L151.757 364.078
z
" style="fill:#60a0d0;"/>
   </g>
   <g id="patch_20">
    <path clip-path="url(#p01a569de64)" d="
M155.638 388.8
L159.519 388.8
L159.519 354.816
L155.638 354.816
z
" style="fill:#60a0d0;"/>
   </g>
   <g id="patch_21">
    <path clip-path="url(#p01a569de64)" d="
M159.519 388.8
L163.399 388.8
L163.399 341.28
L159.519 341.28
z
" style="fill:#60a0d0;"/>
   </g>
   <g id="patch_22">
    <path clip-path="url(#p01a569de64)" d="
M163.399 388.8
L167.28 388.8
L167.28 319.836
L163.399 319.836
z
" style="fill:#60a0d0;"/>
   </g>
   <g id="patch_23">
    <path clip-path="url(#p01a569de64)" d="
M167.28 388.8
L171.161 388.8
L171.161 291.124
L167.28 291.124
z
" style="fill:#60a0d0;"/>
   </g>
   <g id="patch_24">
    <path clip-path="url(#p01a569de64)" d="
M171.161 388.8
L175.041 388.8
L175.041 254.148
L171.161 254.148
z
" style="fill:#60a0d0;"/>
   </g>
   <g id="patch_25">
    <path clip-path="url(#p01a569de64)" d="
M175.041 388.8
L178.922 388.8
L178.922 201.713
L175.041 201.713
z
" style="fill:#60a0d0;"/>
   </g>
   <g id="patch_26">
    <path clip-path="url(#p01a569de64)" d="
M178.922 388.8
L182.803 388.8
L182.803 118.571
L178.922 118.571
z
" style="fill:#60a0d0;"/>
   </g>
   <g id="patch_27">
    <path clip-path="url(#p01a569de64)" d="
M182.803 388.8
L186.684 388.8
L186.684 85.9407
L182.803 85.9407
z
" style="fill:#60a0d0;"/>
   </g>
   <g id="patch_28">
    <path clip-path="url(#p01a569de64)" d="
M186.684 388.8
L190.564 388.8
L190.564 91.1415
L186.684 91.1415
z
" style="fill:#60a0d0;"/>
   </g>
   <g id="patch_29">
    <path clip-path="url(#p01a569de64)" d="
M190.564 388.8
L194.445 388.8
L194.445 91.4977
L190.564 91.4977
z
" style="fill:#60a0d0;"/>
   </g>
   <g id="patch_30">
    <path clip-path="url(#p01a569de64)" d="
M194.445 388.8
L198.326 388.8
L198.326 102.612
L194.445 102.612
z
" style="fill:#60a0d0;"/>
   </g>
   <g id="patch_31">
    <path clip-path="url(#p01a569de64)" d="
M198.326 388.8
L202.207 388.8
L202.207 106.317
L198.326 106.317
z
" style="fill:#60a0d0;"/>
   </g>
   <g id="patch_32">
    <path clip-path="url(#p01a569de64)" d="
M202.207 388.8
L206.087 388.8
L206.087 116.504
L202.207 116.504
z
" style="fill:#60a0d0;"/>
   </g>
   <g id="patch_33">
    <path clip-path="url(#p01a569de64)" d="
M206.087 388.8
L209.968 388.8
L209.968 117.431
L206.087 117.431
z
" style="fill:#60a0d0;"/>
   </g>
   <g id="patch_34">
    <path clip-path="url(#p01a569de64)" d="
M209.968 388.8
L213.849 388.8
L213.849 124.626
L209.968 124.626
z
" style="fill:#60a0d0;"/>
   </g>
   <g id="patch_35">
    <path clip-path="url(#p01a569de64)" d="
M213.849 388.8
L217.73 388.8
L217.73 135.527
L213.849 135.527
z
" style="fill:#60a0d0;"/>
   </g>
   <g id="patch_36">
    <path clip-path="url(#p01a569de64)" d="
M217.73 388.8
L221.61 388.8
L221.61 148.778
L217.73 148.778
z
" style="fill:#60a0d0;"/>
   </g>
   <g id="patch_37">
    <path clip-path="url(#p01a569de64)" d="
M221.61 388.8
L225.491 388.8
L225.491 154.976
L221.61 154.976
z
" style="fill:#60a0d0;"/>
   </g>
   <g id="patch_38">
    <path clip-path="url(#p01a569de64)" d="
M225.491 388.8
L229.372 388.8
L229.372 162.671
L225.491 162.671
z
" style="fill:#60a0d0;"/>
   </g>
   <g id="patch_39">
    <path clip-path="url(#p01a569de64)" d="
M229.372 388.8
L233.252 388.8
L233.252 173.357
L229.372 173.357
z
" style="fill:#60a0d0;"/>
   </g>
   <g id="patch_40">
    <path clip-path="url(#p01a569de64)" d="
M233.252 388.8
L237.133 388.8
L237.133 184.543
L233.252 184.543
z
" style="fill:#60a0d0;"/>
   </g>
   <g id="patch_41">
    <path clip-path="url(#p01a569de64)" d="
M237.133 388.8
L241.014 388.8
L241.014 191.81
L237.133 191.81
z
" style="fill:#60a0d0;"/>
   </g>
   <g id="patch_42">
    <path clip-path="url(#p01a569de64)" d="
M241.014 388.8
L244.895 388.8
L244.895 196.013
L241.014 196.013
z
" style="fill:#60a0d0;"/>
   </g>
   <g id="patch_43">
    <path clip-path="url(#p01a569de64)" d="
M244.895 388.8
L248.775 388.8
L248.775 207.056
L244.895 207.056
z
" style="fill:#60a0d0;"/>
   </g>
   <g id="patch_44">
    <path clip-path="url(#p01a569de64)" d="
M248.775 388.8
L252.656 388.8
L252.656 224.155
L248.775 224.155
z
" style="fill:#60a0d0;"/>
   </g>
   <g id="patch_45">
    <path clip-path="url(#p01a569de64)" d="
M252.656 388.8
L256.537 388.8
L256.537 227.93
L252.656 227.93
z
" style="fill:#60a0d0;"/>
   </g>
   <g id="patch_46">
    <path clip-path="url(#p01a569de64)" d="
M256.537 388.8
L260.418 388.8
L260.418 238.118
L256.537 238.118
z
" style="fill:#60a0d0;"/>
   </g>
   <g id="patch_47">
    <path clip-path="url(#p01a569de64)" d="
M260.418 388.8
L264.298 388.8
L264.298 249.446
L260.418 249.446
z
" style="fill:#60a0d0;"/>
   </g>
   <g id="patch_48">
    <path clip-path="url(#p01a569de64)" d="
M264.298 388.8
L268.179 388.8
L268.179 260.418
L264.298 260.418
z
" style="fill:#60a0d0;"/>
   </g>
   <g id="patch_49">
    <path clip-path="url(#p01a569de64)" d="
M268.179 388.8
L272.06 388.8
L272.06 267.115
L268.179 267.115
z
" style="fill:#60a0d0;"/>
   </g>
   <g id="patch_50">
    <path clip-path="url(#p01a569de64)" d="
M272.06 388.8
L275.941 388.8
L275.941 279.583
L272.06 279.583
z
" style="fill:#60a0d0;"/>
   </g>
   <g id="patch_51">
    <path clip-path="url(#p01a569de64)" d="
M275.941 388.8
L279.821 388.8
L279.821 285.425
L275.941 285.425
z
" style="fill:#60a0d0;"/>
   </g>
   <g id="patch_52">
    <path clip-path="url(#p01a569de64)" d="
M279.821 388.8
L283.702 388.8
L283.702 296.467
L279.821 296.467
z
" style="fill:#60a0d0;"/>
   </g>
   <g id="patch_53">
    <path clip-path="url(#p01a569de64)" d="
M283.702 388.8
L287.583 388.8
L287.583 301.526
L283.702 301.526
z
" style="fill:#60a0d0;"/>
   </g>
   <g id="patch_54">
    <path clip-path="url(#p01a569de64)" d="
M287.583 388.8
L291.463 388.8
L291.463 304.946
L287.583 304.946
z
" style="fill:#60a0d0;"/>
   </g>
   <g id="patch_55">
    <path clip-path="url(#p01a569de64)" d="
M291.463 388.8
L295.344 388.8
L295.344 319.479
L291.463 319.479
z
" style="fill:#60a0d0;"/>
   </g>
   <g id="patch_56">
    <path clip-path="url(#p01a569de64)" d="
M295.344 388.8
L299.225 388.8
L299.225 322.258
L295.344 322.258
z
" style="fill:#60a0d0;"/>
   </g>
   <g id="patch_57">
    <path clip-path="url(#p01a569de64)" d="
M299.225 388.8
L303.106 388.8
L303.106 329.026
L299.225 329.026
z
" style="fill:#60a0d0;"/>
   </g>
   <g id="patch_58">
    <path clip-path="url(#p01a569de64)" d="
M303.106 388.8
L306.986 388.8
L306.986 338.288
L303.106 338.288
z
" style="fill:#60a0d0;"/>
   </g>
   <g id="patch_59">
    <path clip-path="url(#p01a569de64)" d="
M306.986 388.8
L310.867 388.8
L310.867 335.937
L306.986 335.937
z
" style="fill:#60a0d0;"/>
   </g>
   <g id="patch_60">
    <path clip-path="url(#p01a569de64)" d="
M310.867 388.8
L314.748 388.8
L314.748 343.916
L310.867 343.916
z
" style="fill:#60a0d0;"/>
   </g>
   <g id="patch_61">
    <path clip-path="url(#p01a569de64)" d="
M314.748 388.8
L318.629 388.8
L318.629 349.972
L314.748 349.972
z
" style="fill:#60a0d0;"/>
   </g>
   <g id="patch_62">
    <path clip-path="url(#p01a569de64)" d="
M318.629 388.8
L322.509 388.8
L322.509 354.603
L318.629 354.603
z
" style="fill:#60a0d0;"/>
   </g>
   <g id="patch_63">
    <path clip-path="url(#p01a569de64)" d="
M322.509 388.8
L326.39 388.8
L326.39 359.376
L322.509 359.376
z
" style="fill:#60a0d0;"/>
   </g>
   <g id="patch_64">
    <path clip-path="url(#p01a569de64)" d="
M326.39 388.8
L330.271 388.8
L330.271 361.513
L326.39 361.513
z
" style="fill:#60a0d0;"/>
   </g>
   <g id="patch_65">
    <path clip-path="url(#p01a569de64)" d="
M330.271 388.8
L334.152 388.8
L334.152 367.284
L330.271 367.284
z
" style="fill:#60a0d0;"/>
   </g>
   <g id="patch_66">
    <path clip-path="url(#p01a569de64)" d="
M334.152 388.8
L338.032 388.8
L338.032 366.999
L334.152 366.999
z
" style="fill:#60a0d0;"/>
   </g>
   <g id="patch_67">
    <path clip-path="url(#p01a569de64)" d="
M338.032 388.8
L341.913 388.8
L341.913 369.635
L338.032 369.635
z
" style="fill:#60a0d0;"/>
   </g>
   <g id="patch_68">
    <path clip-path="url(#p01a569de64)" d="
M341.913 388.8
L345.794 388.8
L345.794 371.844
L341.913 371.844
z
" style="fill:#60a0d0;"/>
   </g>
   <g id="patch_69">
    <path clip-path="url(#p01a569de64)" d="
M345.794 388.8
L349.675 388.8
L349.675 376.403
L345.794 376.403
z
" style="fill:#60a0d0;"/>
   </g>
   <g id="patch_70">
    <path clip-path="url(#p01a569de64)" d="
M349.675 388.8
L353.555 388.8
L353.555 378.042
L349.675 378.042
z
" style="fill:#60a0d0;"/>
   </g>
   <g id="patch_71">
    <path clip-path="url(#p01a569de64)" d="
M353.555 388.8
L357.436 388.8
L357.436 379.681
L353.555 379.681
z
" style="fill:#60a0d0;"/>
   </g>
   <g id="patch_72">
    <path clip-path="url(#p01a569de64)" d="
M357.436 388.8
L361.317 388.8
L361.317 380.179
L357.436 380.179
z
" style="fill:#60a0d0;"/>
   </g>
   <g id="patch_73">
    <path clip-path="url(#p01a569de64)" d="
M361.317 388.8
L365.197 388.8
L365.197 381.248
L361.317 381.248
z
" style="fill:#60a0d0;"/>
   </g>
   <g id="patch_74">
    <path clip-path="url(#p01a569de64)" d="
M365.197 388.8
L369.078 388.8
L369.078 382.103
L365.197 382.103
z
" style="fill:#60a0d0;"/>
   </g>
   <g id="patch_75">
    <path clip-path="url(#p01a569de64)" d="
M369.078 388.8
L372.959 388.8
L372.959 383.314
L369.078 383.314
z
" style="fill:#60a0d0;"/>
   </g>
   <g id="patch_76">
    <path clip-path="url(#p01a569de64)" d="
M372.959 388.8
L376.84 388.8
L376.84 385.238
L372.959 385.238
z
" style="fill:#60a0d0;"/>
   </g>
   <g id="patch_77">
    <path clip-path="url(#p01a569de64)" d="
M376.84 388.8
L380.72 388.8
L380.72 384.882
L376.84 384.882
z
" style="fill:#60a0d0;"/>
   </g>
   <g id="patch_78">
    <path clip-path="url(#p01a569de64)" d="
M380.72 388.8
L384.601 388.8
L384.601 384.312
L380.72 384.312
z
" style="fill:#60a0d0;"/>
   </g>
   <g id="patch_79">
    <path clip-path="url(#p01a569de64)" d="
M384.601 388.8
L388.482 388.8
L388.482 385.452
L384.601 385.452
z
" style="fill:#60a0d0;"/>
   </g>
   <g id="patch_80">
    <path clip-path="url(#p01a569de64)" d="
M388.482 388.8
L392.363 388.8
L392.363 386.591
L388.482 386.591
z
" style="fill:#60a0d0;"/>
   </g>
   <g id="patch_81">
    <path clip-path="url(#p01a569de64)" d="
M392.363 388.8
L396.243 388.8
L396.243 386.876
L392.363 386.876
z
" style="fill:#60a0d0;"/>
   </g>
   <g id="patch_82">
    <path clip-path="url(#p01a569de64)" d="
M396.243 388.8
L400.124 388.8
L400.124 387.019
L396.243 387.019
z
" style="fill:#60a0d0;"/>
   </g>
   <g id="patch_83">
    <path clip-path="url(#p01a569de64)" d="
M400.124 388.8
L404.005 388.8
L404.005 387.375
L400.124 387.375
z
" style="fill:#60a0d0;"/>
   </g>
   <g id="patch_84">
    <path clip-path="url(#p01a569de64)" d="
M404.005 388.8
L407.886 388.8
L407.886 387.518
L404.005 387.518
z
" style="fill:#60a0d0;"/>
   </g>
   <g id="patch_85">
    <path clip-path="url(#p01a569de64)" d="
M407.886 388.8
L411.766 388.8
L411.766 387.66
L407.886 387.66
z
" style="fill:#60a0d0;"/>
   </g>
   <g id="patch_86">
    <path clip-path="url(#p01a569de64)" d="
M411.766 388.8
L415.647 388.8
L415.647 387.233
L411.766 387.233
z
" style="fill:#60a0d0;"/>
   </g>
   <g id="patch_87">
    <path clip-path="url(#p01a569de64)" d="
M415.647 388.8
L419.528 388.8
L419.528 388.016
L415.647 388.016
z
" style="fill:#60a0d0;"/>
   </g>
   <g id="patch_88">
    <path clip-path="url(#p01a569de64)" d="
M419.528 388.8
L423.408 388.8
L423.408 388.301
L419.528 388.301
z
" style="fill:#60a0d0;"/>
   </g>
   <g id="patch_89">
    <path clip-path="url(#p01a569de64)" d="
M423.408 388.8
L427.289 388.8
L427.289 387.945
L423.408 387.945
z
" style="fill:#60a0d0;"/>
   </g>
   <g id="patch_90">
    <path clip-path="url(#p01a569de64)" d="
M427.289 388.8
L431.17 388.8
L431.17 388.016
L427.289 388.016
z
" style="fill:#60a0d0;"/>
   </g>
   <g id="patch_91">
    <path clip-path="url(#p01a569de64)" d="
M431.17 388.8
L435.051 388.8
L435.051 388.658
L431.17 388.658
z
" style="fill:#60a0d0;"/>
   </g>
   <g id="patch_92">
    <path clip-path="url(#p01a569de64)" d="
M435.051 388.8
L438.931 388.8
L438.931 388.444
L435.051 388.444
z
" style="fill:#60a0d0;"/>
   </g>
   <g id="patch_93">
    <path clip-path="url(#p01a569de64)" d="
M438.931 388.8
L442.812 388.8
L442.812 388.444
L438.931 388.444
z
" style="fill:#60a0d0;"/>
   </g>
   <g id="patch_94">
    <path clip-path="url(#p01a569de64)" d="
M442.812 388.8
L446.693 388.8
L446.693 388.301
L442.812 388.301
z
" style="fill:#60a0d0;"/>
   </g>
   <g id="patch_95">
    <path clip-path="url(#p01a569de64)" d="
M446.693 388.8
L450.574 388.8
L450.574 388.658
L446.693 388.658
z
" style="fill:#60a0d0;"/>
   </g>
   <g id="patch_96">
    <path clip-path="url(#p01a569de64)" d="
M450.574 388.8
L454.454 388.8
L454.454 388.586
L450.574 388.586
z
" style="fill:#60a0d0;"/>
   </g>
   <g id="patch_97">
    <path clip-path="url(#p01a569de64)" d="
M454.454 388.8
L458.335 388.8
L458.335 388.729
L454.454 388.729
z
" style="fill:#60a0d0;"/>
   </g>
   <g id="patch_98">
    <path clip-path="url(#p01a569de64)" d="
M458.335 388.8
L462.216 388.8
L462.216 388.8
L458.335 388.8
z
" style="fill:#60a0d0;"/>
   </g>
   <g id="patch_99">
    <path clip-path="url(#p01a569de64)" d="
M462.216 388.8
L466.097 388.8
L466.097 388.8
L462.216 388.8
z
" style="fill:#60a0d0;"/>
   </g>
   <g id="patch_100">
    <path clip-path="url(#p01a569de64)" d="
M466.097 388.8
L469.977 388.8
L469.977 388.729
L466.097 388.729
z
" style="fill:#60a0d0;"/>
   </g>
   <g id="patch_101">
    <path clip-path="url(#p01a569de64)" d="
M469.977 388.8
L473.858 388.8
L473.858 388.729
L469.977 388.729
z
" style="fill:#60a0d0;"/>
   </g>
   <g id="patch_102">
    <path clip-path="url(#p01a569de64)" d="
M473.858 388.8
L477.739 388.8
L477.739 388.729
L473.858 388.729
z
" style="fill:#60a0d0;"/>
   </g>
   <g id="patch_103">
    <path d="
M86.4 388.8
L86.4 43.2" style="fill:none;stroke:#000000;stroke-linecap:square;stroke-linejoin:miter;"/>
   </g>
   <g id="patch_104">
    <path d="
M518.4 388.8
L518.4 43.2" style="fill:none;stroke:#000000;stroke-linecap:square;stroke-linejoin:miter;"/>
   </g>
   <g id="patch_105">
    <path d="
M86.4 388.8
L518.4 388.8" style="fill:none;stroke:#000000;stroke-linecap:square;stroke-linejoin:miter;"/>
   </g>
   <g id="patch_106">
    <path d="
M86.4 43.2
L518.4 43.2" style="fill:none;stroke:#000000;stroke-linecap:square;stroke-linejoin:miter;"/>
   </g>
   <g id="matplotlib.axis_1">
    <g id="xtick_1">
     <g id="line2d_1">
      <defs>
       <path d="
M0 0
L0 -4" id="mc7db9fdffb" style="stroke:#000000;stroke-width:0.5;"/>
      </defs>
      <g>
       <use style="stroke:#000000;stroke-width:0.5;" x="86.4" xlink:href="#mc7db9fdffb" y="388.8"/>
      </g>
     </g>
     <g id="line2d_2">
      <defs>
       <path d="
M0 0
L0 4" id="m5a7d422ac3" style="stroke:#000000;stroke-width:0.5;"/>
      </defs>
      <g>
       <use style="stroke:#000000;stroke-width:0.5;" x="86.4" xlink:href="#m5a7d422ac3" y="43.2"/>
      </g>
     </g>
     <g id="text_1">
      <!-- −2 -->
      <defs>
       <path d="
M10.5938 35.5
L73.1875 35.5
L73.1875 27.2031
L10.5938 27.2031
z
" id="BitstreamVeraSans-Roman-2212"/>
       <path d="
M19.1875 8.29688
L53.6094 8.29688
L53.6094 0
L7.32812 0
L7.32812 8.29688
Q12.9375 14.1094 22.625 23.8906
Q32.3281 33.6875 34.8125 36.5312
Q39.5469 41.8438 41.4219 45.5312
Q43.3125 49.2188 43.3125 52.7812
Q43.3125 58.5938 39.2344 62.25
Q35.1562 65.9219 28.6094 65.9219
Q23.9688 65.9219 18.8125 64.3125
Q13.6719 62.7031 7.8125 59.4219
L7.8125 69.3906
Q13.7656 71.7812 18.9375 73
Q24.125 74.2188 28.4219 74.2188
Q39.75 74.2188 46.4844 68.5469
Q53.2188 62.8906 53.2188 53.4219
Q53.2188 48.9219 51.5312 44.8906
Q49.8594 40.875 45.4062 35.4062
Q44.1875 33.9844 37.6406 27.2188
Q31.1094 20.4531 19.1875 8.29688" id="BitstreamVeraSans-Roman-32"/>
      </defs>
      <g transform="translate(78.79125 401.918125)scale(0.12 -0.12)">
       <use xlink:href="#BitstreamVeraSans-Roman-2212"/>
       <use x="83.7890625" xlink:href="#BitstreamVeraSans-Roman-32"/>
      </g>
     </g>
    </g>
    <g id="xtick_2">
     <g id="line2d_3">
      <g>
       <use style="stroke:#000000;stroke-width:0.5;" x="134.4" xlink:href="#mc7db9fdffb" y="388.8"/>
      </g>
     </g>
     <g id="line2d_4">
      <g>
       <use style="stroke:#000000;stroke-width:0.5;" x="134.4" xlink:href="#m5a7d422ac3" y="43.2"/>
      </g>
     </g>
     <g id="text_2">
      <!-- −1 -->
      <defs>
       <path d="
M12.4062 8.29688
L28.5156 8.29688
L28.5156 63.9219
L10.9844 60.4062
L10.9844 69.3906
L28.4219 72.9062
L38.2812 72.9062
L38.2812 8.29688
L54.3906 8.29688
L54.3906 0
L12.4062 0
z
" id="BitstreamVeraSans-Roman-31"/>
      </defs>
      <g transform="translate(126.744375 401.918125)scale(0.12 -0.12)">
       <use xlink:href="#BitstreamVeraSans-Roman-2212"/>
       <use x="83.7890625" xlink:href="#BitstreamVeraSans-Roman-31"/>
      </g>
     </g>
    </g>
    <g id="xtick_3">
     <g id="line2d_5">
      <g>
       <use style="stroke:#000000;stroke-width:0.5;" x="182.4" xlink:href="#mc7db9fdffb" y="388.8"/>
      </g>
     </g>
     <g id="line2d_6">
      <g>
       <use style="stroke:#000000;stroke-width:0.5;" x="182.4" xlink:href="#m5a7d422ac3" y="43.2"/>
      </g>
     </g>
     <g id="text_3">
      <!-- 0 -->
      <defs>
       <path d="
M31.7812 66.4062
Q24.1719 66.4062 20.3281 58.9062
Q16.5 51.4219 16.5 36.375
Q16.5 21.3906 20.3281 13.8906
Q24.1719 6.39062 31.7812 6.39062
Q39.4531 6.39062 43.2812 13.8906
Q47.125 21.3906 47.125 36.375
Q47.125 51.4219 43.2812 58.9062
Q39.4531 66.4062 31.7812 66.4062
M31.7812 74.2188
Q44.0469 74.2188 50.5156 64.5156
Q56.9844 54.8281 56.9844 36.375
Q56.9844 17.9688 50.5156 8.26562
Q44.0469 -1.42188 31.7812 -1.42188
Q19.5312 -1.42188 13.0625 8.26562
Q6.59375 17.9688 6.59375 36.375
Q6.59375 54.8281 13.0625 64.5156
Q19.5312 74.2188 31.7812 74.2188" id="BitstreamVeraSans-Roman-30"/>
      </defs>
      <g transform="translate(179.3765625 401.918125)scale(0.12 -0.12)">
       <use xlink:href="#BitstreamVeraSans-Roman-30"/>
      </g>
     </g>
    </g>
    <g id="xtick_4">
     <g id="line2d_7">
      <g>
       <use style="stroke:#000000;stroke-width:0.5;" x="230.4" xlink:href="#mc7db9fdffb" y="388.8"/>
      </g>
     </g>
     <g id="line2d_8">
      <g>
       <use style="stroke:#000000;stroke-width:0.5;" x="230.4" xlink:href="#m5a7d422ac3" y="43.2"/>
      </g>
     </g>
     <g id="text_4">
      <!-- 1 -->
      <g transform="translate(227.795625 401.918125)scale(0.12 -0.12)">
       <use xlink:href="#BitstreamVeraSans-Roman-31"/>
      </g>
     </g>
    </g>
    <g id="xtick_5">
     <g id="line2d_9">
      <g>
       <use style="stroke:#000000;stroke-width:0.5;" x="278.4" xlink:href="#mc7db9fdffb" y="388.8"/>
      </g>
     </g>
     <g id="line2d_10">
      <g>
       <use style="stroke:#000000;stroke-width:0.5;" x="278.4" xlink:href="#m5a7d422ac3" y="43.2"/>
      </g>
     </g>
     <g id="text_5">
      <!-- 2 -->
      <g transform="translate(275.623125 401.918125)scale(0.12 -0.12)">
       <use xlink:href="#BitstreamVeraSans-Roman-32"/>
      </g>
     </g>
    </g>
    <g id="xtick_6">
     <g id="line2d_11">
      <g>
       <use style="stroke:#000000;stroke-width:0.5;" x="326.4" xlink:href="#mc7db9fdffb" y="388.8"/>
      </g>
     </g>
     <g id="line2d_12">
      <g>
       <use style="stroke:#000000;stroke-width:0.5;" x="326.4" xlink:href="#m5a7d422ac3" y="43.2"/>
      </g>
     </g>
     <g id="text_6">
      <!-- 3 -->
      <defs>
       <path d="
M40.5781 39.3125
Q47.6562 37.7969 51.625 33
Q55.6094 28.2188 55.6094 21.1875
Q55.6094 10.4062 48.1875 4.48438
Q40.7656 -1.42188 27.0938 -1.42188
Q22.5156 -1.42188 17.6562 -0.515625
Q12.7969 0.390625 7.625 2.20312
L7.625 11.7188
Q11.7188 9.32812 16.5938 8.10938
Q21.4844 6.89062 26.8125 6.89062
Q36.0781 6.89062 40.9375 10.5469
Q45.7969 14.2031 45.7969 21.1875
Q45.7969 27.6406 41.2812 31.2656
Q36.7656 34.9062 28.7188 34.9062
L20.2188 34.9062
L20.2188 43.0156
L29.1094 43.0156
Q36.375 43.0156 40.2344 45.9219
Q44.0938 48.8281 44.0938 54.2969
Q44.0938 59.9062 40.1094 62.9062
Q36.1406 65.9219 28.7188 65.9219
Q24.6562 65.9219 20.0156 65.0312
Q15.375 64.1562 9.8125 62.3125
L9.8125 71.0938
Q15.4375 72.6562 20.3438 73.4375
Q25.25 74.2188 29.5938 74.2188
Q40.8281 74.2188 47.3594 69.1094
Q53.9062 64.0156 53.9062 55.3281
Q53.9062 49.2656 50.4375 45.0938
Q46.9688 40.9219 40.5781 39.3125" id="BitstreamVeraSans-Roman-33"/>
      </defs>
      <g transform="translate(323.5209375 401.918125)scale(0.12 -0.12)">
       <use xlink:href="#BitstreamVeraSans-Roman-33"/>
      </g>
     </g>
    </g>
    <g id="xtick_7">
     <g id="line2d_13">
      <g>
       <use style="stroke:#000000;stroke-width:0.5;" x="374.4" xlink:href="#mc7db9fdffb" y="388.8"/>
      </g>
     </g>
     <g id="line2d_14">
      <g>
       <use style="stroke:#000000;stroke-width:0.5;" x="374.4" xlink:href="#m5a7d422ac3" y="43.2"/>
      </g>
     </g>
     <g id="text_7">
      <!-- 4 -->
      <defs>
       <path d="
M37.7969 64.3125
L12.8906 25.3906
L37.7969 25.3906
z

M35.2031 72.9062
L47.6094 72.9062
L47.6094 25.3906
L58.0156 25.3906
L58.0156 17.1875
L47.6094 17.1875
L47.6094 0
L37.7969 0
L37.7969 17.1875
L4.89062 17.1875
L4.89062 26.7031
z
" id="BitstreamVeraSans-Roman-34"/>
      </defs>
      <g transform="translate(371.2125 401.918125)scale(0.12 -0.12)">
       <use xlink:href="#BitstreamVeraSans-Roman-34"/>
      </g>
     </g>
    </g>
    <g id="xtick_8">
     <g id="line2d_15">
      <g>
       <use style="stroke:#000000;stroke-width:0.5;" x="422.4" xlink:href="#mc7db9fdffb" y="388.8"/>
      </g>
     </g>
     <g id="line2d_16">
      <g>
       <use style="stroke:#000000;stroke-width:0.5;" x="422.4" xlink:href="#m5a7d422ac3" y="43.2"/>
      </g>
     </g>
     <g id="text_8">
      <!-- 5 -->
      <defs>
       <path d="
M10.7969 72.9062
L49.5156 72.9062
L49.5156 64.5938
L19.8281 64.5938
L19.8281 46.7344
Q21.9688 47.4688 24.1094 47.8281
Q26.2656 48.1875 28.4219 48.1875
Q40.625 48.1875 47.75 41.5
Q54.8906 34.8125 54.8906 23.3906
Q54.8906 11.625 47.5625 5.09375
Q40.2344 -1.42188 26.9062 -1.42188
Q22.3125 -1.42188 17.5469 -0.640625
Q12.7969 0.140625 7.71875 1.70312
L7.71875 11.625
Q12.1094 9.23438 16.7969 8.0625
Q21.4844 6.89062 26.7031 6.89062
Q35.1562 6.89062 40.0781 11.3281
Q45.0156 15.7656 45.0156 23.3906
Q45.0156 31 40.0781 35.4375
Q35.1562 39.8906 26.7031 39.8906
Q22.75 39.8906 18.8125 39.0156
Q14.8906 38.1406 10.7969 36.2812
z
" id="BitstreamVeraSans-Roman-35"/>
      </defs>
      <g transform="translate(419.5696875 401.918125)scale(0.12 -0.12)">
       <use xlink:href="#BitstreamVeraSans-Roman-35"/>
      </g>
     </g>
    </g>
    <g id="xtick_9">
     <g id="line2d_17">
      <g>
       <use style="stroke:#000000;stroke-width:0.5;" x="470.4" xlink:href="#mc7db9fdffb" y="388.8"/>
      </g>
     </g>
     <g id="line2d_18">
      <g>
       <use style="stroke:#000000;stroke-width:0.5;" x="470.4" xlink:href="#m5a7d422ac3" y="43.2"/>
      </g>
     </g>
     <g id="text_9">
      <!-- 6 -->
      <defs>
       <path d="
M33.0156 40.375
Q26.375 40.375 22.4844 35.8281
Q18.6094 31.2969 18.6094 23.3906
Q18.6094 15.5312 22.4844 10.9531
Q26.375 6.39062 33.0156 6.39062
Q39.6562 6.39062 43.5312 10.9531
Q47.4062 15.5312 47.4062 23.3906
Q47.4062 31.2969 43.5312 35.8281
Q39.6562 40.375 33.0156 40.375
M52.5938 71.2969
L52.5938 62.3125
Q48.875 64.0625 45.0938 64.9844
Q41.3125 65.9219 37.5938 65.9219
Q27.8281 65.9219 22.6719 59.3281
Q17.5312 52.7344 16.7969 39.4062
Q19.6719 43.6562 24.0156 45.9219
Q28.375 48.1875 33.5938 48.1875
Q44.5781 48.1875 50.9531 41.5156
Q57.3281 34.8594 57.3281 23.3906
Q57.3281 12.1562 50.6875 5.35938
Q44.0469 -1.42188 33.0156 -1.42188
Q20.3594 -1.42188 13.6719 8.26562
Q6.98438 17.9688 6.98438 36.375
Q6.98438 53.6562 15.1875 63.9375
Q23.3906 74.2188 37.2031 74.2188
Q40.9219 74.2188 44.7031 73.4844
Q48.4844 72.75 52.5938 71.2969" id="BitstreamVeraSans-Roman-36"/>
      </defs>
      <g transform="translate(467.379375 401.918125)scale(0.12 -0.12)">
       <use xlink:href="#BitstreamVeraSans-Roman-36"/>
      </g>
     </g>
    </g>
    <g id="xtick_10">
     <g id="line2d_19">
      <g>
       <use style="stroke:#000000;stroke-width:0.5;" x="518.4" xlink:href="#mc7db9fdffb" y="388.8"/>
      </g>
     </g>
     <g id="line2d_20">
      <g>
       <use style="stroke:#000000;stroke-width:0.5;" x="518.4" xlink:href="#m5a7d422ac3" y="43.2"/>
      </g>
     </g>
     <g id="text_10">
      <!-- 7 -->
      <defs>
       <path d="
M8.20312 72.9062
L55.0781 72.9062
L55.0781 68.7031
L28.6094 0
L18.3125 0
L43.2188 64.5938
L8.20312 64.5938
z
" id="BitstreamVeraSans-Roman-37"/>
      </defs>
      <g transform="translate(515.5875 401.918125)scale(0.12 -0.12)">
       <use xlink:href="#BitstreamVeraSans-Roman-37"/>
      </g>
     </g>
    </g>
   </g>
   <g id="matplotlib.axis_2">
    <g id="ytick_1">
     <g id="line2d_21">
      <defs>
       <path d="
M0 0
L4 0" id="md7965d1ba0" style="stroke:#000000;stroke-width:0.5;"/>
      </defs>
      <g>
       <use style="stroke:#000000;stroke-width:0.5;" x="86.4" xlink:href="#md7965d1ba0" y="388.8"/>
      </g>
     </g>
     <g id="line2d_22">
      <defs>
       <path d="
M0 0
L-4 0" id="md9a1c1a7cd" style="stroke:#000000;stroke-width:0.5;"/>
      </defs>
      <g>
       <use style="stroke:#000000;stroke-width:0.5;" x="518.4" xlink:href="#md9a1c1a7cd" y="388.8"/>
      </g>
     </g>
     <g id="text_11">
      <!-- 0.0 -->
      <defs>
       <path d="
M10.6875 12.4062
L21 12.4062
L21 0
L10.6875 0
z
" id="BitstreamVeraSans-Roman-2e"/>
      </defs>
      <g transform="translate(64.904375 392.11125)scale(0.12 -0.12)">
       <use xlink:href="#BitstreamVeraSans-Roman-30"/>
       <use x="63.623046875" xlink:href="#BitstreamVeraSans-Roman-2e"/>
       <use x="95.41015625" xlink:href="#BitstreamVeraSans-Roman-30"/>
      </g>
     </g>
    </g>
    <g id="ytick_2">
     <g id="line2d_23">
      <g>
       <use style="stroke:#000000;stroke-width:0.5;" x="86.4" xlink:href="#md7965d1ba0" y="331.2"/>
      </g>
     </g>
     <g id="line2d_24">
      <g>
       <use style="stroke:#000000;stroke-width:0.5;" x="518.4" xlink:href="#md9a1c1a7cd" y="331.2"/>
      </g>
     </g>
     <g id="text_12">
      <!-- 0.1 -->
      <g transform="translate(65.215625 334.51125)scale(0.12 -0.12)">
       <use xlink:href="#BitstreamVeraSans-Roman-30"/>
       <use x="63.623046875" xlink:href="#BitstreamVeraSans-Roman-2e"/>
       <use x="95.41015625" xlink:href="#BitstreamVeraSans-Roman-31"/>
      </g>
     </g>
    </g>
    <g id="ytick_3">
     <g id="line2d_25">
      <g>
       <use style="stroke:#000000;stroke-width:0.5;" x="86.4" xlink:href="#md7965d1ba0" y="273.6"/>
      </g>
     </g>
     <g id="line2d_26">
      <g>
       <use style="stroke:#000000;stroke-width:0.5;" x="518.4" xlink:href="#md9a1c1a7cd" y="273.6"/>
      </g>
     </g>
     <g id="text_13">
      <!-- 0.2 -->
      <g transform="translate(65.309375 276.91125)scale(0.12 -0.12)">
       <use xlink:href="#BitstreamVeraSans-Roman-30"/>
       <use x="63.623046875" xlink:href="#BitstreamVeraSans-Roman-2e"/>
       <use x="95.41015625" xlink:href="#BitstreamVeraSans-Roman-32"/>
      </g>
     </g>
    </g>
    <g id="ytick_4">
     <g id="line2d_27">
      <g>
       <use style="stroke:#000000;stroke-width:0.5;" x="86.4" xlink:href="#md7965d1ba0" y="216.0"/>
      </g>
     </g>
     <g id="line2d_28">
      <g>
       <use style="stroke:#000000;stroke-width:0.5;" x="518.4" xlink:href="#md9a1c1a7cd" y="216.0"/>
      </g>
     </g>
     <g id="text_14">
      <!-- 0.3 -->
      <g transform="translate(65.069375 219.31125)scale(0.12 -0.12)">
       <use xlink:href="#BitstreamVeraSans-Roman-30"/>
       <use x="63.623046875" xlink:href="#BitstreamVeraSans-Roman-2e"/>
       <use x="95.41015625" xlink:href="#BitstreamVeraSans-Roman-33"/>
      </g>
     </g>
    </g>
    <g id="ytick_5">
     <g id="line2d_29">
      <g>
       <use style="stroke:#000000;stroke-width:0.5;" x="86.4" xlink:href="#md7965d1ba0" y="158.4"/>
      </g>
     </g>
     <g id="line2d_30">
      <g>
       <use style="stroke:#000000;stroke-width:0.5;" x="518.4" xlink:href="#md9a1c1a7cd" y="158.4"/>
      </g>
     </g>
     <g id="text_15">
      <!-- 0.4 -->
      <g transform="translate(64.780625 161.71125)scale(0.12 -0.12)">
       <use xlink:href="#BitstreamVeraSans-Roman-30"/>
       <use x="63.623046875" xlink:href="#BitstreamVeraSans-Roman-2e"/>
       <use x="95.41015625" xlink:href="#BitstreamVeraSans-Roman-34"/>
      </g>
     </g>
    </g>
    <g id="ytick_6">
     <g id="line2d_31">
      <g>
       <use style="stroke:#000000;stroke-width:0.5;" x="86.4" xlink:href="#md7965d1ba0" y="100.8"/>
      </g>
     </g>
     <g id="line2d_32">
      <g>
       <use style="stroke:#000000;stroke-width:0.5;" x="518.4" xlink:href="#md9a1c1a7cd" y="100.8"/>
      </g>
     </g>
     <g id="text_16">
      <!-- 0.5 -->
      <g transform="translate(65.155625 104.11125)scale(0.12 -0.12)">
       <use xlink:href="#BitstreamVeraSans-Roman-30"/>
       <use x="63.623046875" xlink:href="#BitstreamVeraSans-Roman-2e"/>
       <use x="95.41015625" xlink:href="#BitstreamVeraSans-Roman-35"/>
      </g>
     </g>
    </g>
    <g id="ytick_7">
     <g id="line2d_33">
      <g>
       <use style="stroke:#000000;stroke-width:0.5;" x="86.4" xlink:href="#md7965d1ba0" y="43.2"/>
      </g>
     </g>
     <g id="line2d_34">
      <g>
       <use style="stroke:#000000;stroke-width:0.5;" x="518.4" xlink:href="#md9a1c1a7cd" y="43.2"/>
      </g>
     </g>
     <g id="text_17">
      <!-- 0.6 -->
      <g transform="translate(64.863125 46.51125)scale(0.12 -0.12)">
       <use xlink:href="#BitstreamVeraSans-Roman-30"/>
       <use x="63.623046875" xlink:href="#BitstreamVeraSans-Roman-2e"/>
       <use x="95.41015625" xlink:href="#BitstreamVeraSans-Roman-36"/>
      </g>
     </g>
    </g>
   </g>
   <g id="text_18">
    <!-- GV-gamma: $\kappa=0.25$ $\nu=4.0$ $\delta=1.0$ $\beta=2.0$, $\mu=0.0$ -->
    <defs>
     <path d="
M25 -2.20312
Q12.75 -2.20312 8.32812 7.875
Q3.90625 17.9688 3.90625 31.8906
Q3.90625 40.5781 5.48438 48.2344
Q7.07812 55.9062 11.7812 61.25
Q16.5 66.6094 25 66.6094
Q31.5938 66.6094 35.7812 63.375
Q39.9844 60.1562 42.1875 55.0469
Q44.3906 49.9531 45.1875 44.1094
Q46 38.2812 46 31.8906
Q46 23.2969 44.4062 15.7969
Q42.8281 8.29688 38.1875 3.04688
Q33.5469 -2.20312 25 -2.20312
M25 0.390625
Q30.5625 0.390625 33.2969 6.09375
Q36.0312 11.8125 36.6719 18.75
Q37.3125 25.6875 37.3125 33.5
Q37.3125 41.0156 36.6719 47.3594
Q36.0312 53.7188 33.3125 58.8594
Q30.6094 64.0156 25 64.0156
Q19.3438 64.0156 16.6094 58.8281
Q13.875 53.6562 13.2344 47.3281
Q12.5938 41.0156 12.5938 33.5
Q12.5938 27.9375 12.8594 23
Q13.1406 18.0625 14.3125 12.8125
Q15.4844 7.5625 18.0938 3.96875
Q20.7031 0.390625 25 0.390625" id="Cmr10-30"/>
     <path d="
M6.29688 0
Q5.07812 0 5.07812 1.3125
L13.625 35.2969
Q14.0156 37.0156 14.1094 37.9844
Q14.1094 39.5938 7.625 39.5938
Q6.59375 39.5938 6.59375 40.9219
Q6.64062 41.1562 6.8125 41.7969
Q6.98438 42.4375 7.25 42.7656
Q7.51562 43.1094 8.01562 43.1094
L21.4844 44.1875
Q22.7031 44.1875 22.7031 42.9219
L12.8906 3.71875
Q20.7969 6.34375 27.4531 11.9531
Q34.125 17.5781 38.7344 25.1875
Q43.3594 32.8125 45.4062 41.0156
Q45.7969 42.4375 46.9688 43.3125
Q48.1406 44.1875 49.6094 44.1875
Q50.9219 44.1875 51.75 43.4062
Q52.5938 42.625 52.5938 41.3125
Q52.5938 39.7031 51.2656 36.4062
Q49.9531 33.1094 48.6875 30.5156
Q44.7344 22.6562 38.1875 16.1094
Q34.0781 12.0156 29.3594 8.84375
Q24.6562 5.67188 19.5312 3.4375
Q14.4062 1.21875 8.6875 0
z
" id="Cmmi10-ba"/>
     <path d="
M8.6875 11.375
Q9.71875 8.45312 11.8438 6.04688
Q13.9688 3.65625 16.875 2.3125
Q19.7812 0.984375 22.9062 0.984375
Q30.125 0.984375 32.8594 6.59375
Q35.5938 12.2031 35.5938 20.2188
Q35.5938 23.6875 35.4688 26.0469
Q35.3594 28.4219 34.8125 30.6094
Q33.8906 34.125 31.5625 36.7656
Q29.25 39.4062 25.875 39.4062
Q22.5156 39.4062 20.0938 38.375
Q17.6719 37.3594 16.1562 35.9844
Q14.6562 34.625 13.4844 33.1094
Q12.3125 31.5938 12.0156 31.5
L10.8906 31.5
Q10.6406 31.5 10.2656 31.8125
Q9.90625 32.125 9.90625 32.4219
L9.90625 65.8281
Q9.90625 66.0625 10.2188 66.3281
Q10.5469 66.6094 10.8906 66.6094
L11.1875 66.6094
Q17.9219 63.375 25.4844 63.375
Q32.9062 63.375 39.7969 66.6094
L40.0938 66.6094
Q40.4375 66.6094 40.7188 66.3594
Q41.0156 66.1094 41.0156 65.8281
L41.0156 64.8906
Q41.0156 64.4062 40.8281 64.4062
Q37.4062 59.8594 32.25 57.3125
Q27.0938 54.7812 21.5781 54.7812
Q17.5781 54.7812 13.375 55.9062
L13.375 37.0156
Q16.7031 39.7031 19.3125 40.8438
Q21.9219 42 25.9844 42
Q31.5 42 35.8594 38.8125
Q40.2344 35.6406 42.5781 30.5312
Q44.9219 25.4375 44.9219 20.125
Q44.9219 14.1094 41.9688 8.98438
Q39.0156 3.85938 33.9375 0.828125
Q28.8594 -2.20312 22.9062 -2.20312
Q17.9688 -2.20312 13.8438 0.328125
Q9.71875 2.875 7.34375 7.17188
Q4.98438 11.4688 4.98438 16.3125
Q4.98438 18.5625 6.4375 19.9688
Q7.90625 21.3906 10.1094 21.3906
Q12.3125 21.3906 13.7969 19.9375
Q15.2812 18.5 15.2812 16.3125
Q15.2812 14.1562 13.7969 12.6719
Q12.3125 11.1875 10.1094 11.1875
Q9.76562 11.1875 9.32812 11.25
Q8.89062 11.3281 8.6875 11.375" id="Cmr10-35"/>
     <path d="
M4.98438 0
L4.98438 2.6875
Q4.98438 2.9375 5.17188 3.21875
L20.7031 20.4062
Q24.2188 24.2188 26.4062 26.7969
Q28.6094 29.3906 30.75 32.7656
Q32.9062 36.1406 34.1562 39.625
Q35.4062 43.1094 35.4062 47.0156
Q35.4062 51.125 33.8906 54.8594
Q32.375 58.5938 29.375 60.8438
Q26.375 63.0938 22.125 63.0938
Q17.7812 63.0938 14.3125 60.4688
Q10.8438 57.8594 9.42188 53.7188
Q9.8125 53.8125 10.5 53.8125
Q12.75 53.8125 14.3281 52.2969
Q15.9219 50.7812 15.9219 48.3906
Q15.9219 46.0938 14.3281 44.5
Q12.75 42.9219 10.5 42.9219
Q8.15625 42.9219 6.5625 44.5469
Q4.98438 46.1875 4.98438 48.3906
Q4.98438 52.1562 6.39062 55.4375
Q7.8125 58.7344 10.4688 61.2969
Q13.1406 63.875 16.4844 65.2344
Q19.8281 66.6094 23.5781 66.6094
Q29.2969 66.6094 34.2188 64.1875
Q39.1562 61.7656 42.0312 57.3438
Q44.9219 52.9375 44.9219 47.0156
Q44.9219 42.6719 43.0156 38.7656
Q41.1094 34.8594 38.125 31.6562
Q35.1562 28.4688 30.5156 24.4062
Q25.875 20.3594 24.4219 19
L13.0938 8.10938
L22.7031 8.10938
Q29.7812 8.10938 34.5469 8.21875
Q39.3125 8.34375 39.5938 8.59375
Q40.7656 9.85938 42 17.8281
L44.9219 17.8281
L42.0938 0
z
" id="Cmr10-32"/>
     <path d="
M8.40625 5.51562
Q8.40625 7.76562 10.0625 9.375
Q11.7188 10.9844 13.9219 10.9844
Q15.2812 10.9844 16.5938 10.25
Q17.9219 9.51562 18.6562 8.20312
Q19.3906 6.89062 19.3906 5.51562
Q19.3906 3.32812 17.7656 1.65625
Q16.1562 0 13.9219 0
Q11.7188 0 10.0625 1.65625
Q8.40625 3.32812 8.40625 5.51562" id="Cmmi10-3a"/>
     <path d="
M28.6094 0
L0.78125 72.9062
L11.0781 72.9062
L34.1875 11.5312
L57.3281 72.9062
L67.5781 72.9062
L39.7969 0
z
" id="BitstreamVeraSans-Roman-56"/>
     <path d="
M52 44.1875
Q55.375 50.25 60.0625 53.125
Q64.75 56 71.0938 56
Q79.6406 56 84.2812 50.0156
Q88.9219 44.0469 88.9219 33.0156
L88.9219 0
L79.8906 0
L79.8906 32.7188
Q79.8906 40.5781 77.0938 44.375
Q74.3125 48.1875 68.6094 48.1875
Q61.625 48.1875 57.5625 43.5469
Q53.5156 38.9219 53.5156 30.9062
L53.5156 0
L44.4844 0
L44.4844 32.7188
Q44.4844 40.625 41.7031 44.4062
Q38.9219 48.1875 33.1094 48.1875
Q26.2188 48.1875 22.1562 43.5312
Q18.1094 38.875 18.1094 30.9062
L18.1094 0
L9.07812 0
L9.07812 54.6875
L18.1094 54.6875
L18.1094 46.1875
Q21.1875 51.2188 25.4844 53.6094
Q29.7812 56 35.6875 56
Q41.6562 56 45.8281 52.9688
Q50 49.9531 52 44.1875" id="BitstreamVeraSans-Roman-6d"/>
     <path id="BitstreamVeraSans-Roman-20"/>
     <path d="
M2.78125 16.5
L2.78125 20.0156
L33.6875 66.1094
Q34.0312 66.6094 34.7188 66.6094
L36.1875 66.6094
Q37.3125 66.6094 37.3125 65.4844
L37.3125 20.0156
L47.125 20.0156
L47.125 16.5
L37.3125 16.5
L37.3125 6.6875
Q37.3125 4.64062 40.2344 4.07812
Q43.1719 3.51562 47.0156 3.51562
L47.0156 0
L19.4844 0
L19.4844 3.51562
Q23.3438 3.51562 26.2656 4.07812
Q29.2031 4.64062 29.2031 6.6875
L29.2031 16.5
z

M6.10938 20.0156
L29.7812 20.0156
L29.7812 55.4219
z
" id="Cmr10-34"/>
     <path d="
M2.78125 -18.7969
Q2.78125 -18.2188 2.875 -18.0156
L17.5781 41.0156
Q18.0156 42.4375 19.1562 43.3125
Q20.3125 44.1875 21.7812 44.1875
Q23.0469 44.1875 23.9219 43.4219
Q24.8125 42.6719 24.8125 41.4062
Q24.8125 41.1094 24.7812 40.9375
Q24.75 40.7656 24.7031 40.5781
L18.7969 17.1875
Q17.8281 13.0312 17.8281 10.0156
Q17.8281 6.29688 19.5781 3.90625
Q21.3438 1.51562 24.9062 1.51562
Q32.1719 1.51562 37.7031 10.5938
Q37.75 10.6875 37.7656 10.7344
Q37.7969 10.7969 37.7969 10.8906
L45.0156 39.8906
Q45.3594 41.2188 46.5781 42.1562
Q47.7969 43.1094 49.2188 43.1094
Q50.3906 43.1094 51.2969 42.3281
Q52.2031 41.5469 52.2031 40.2812
Q52.2031 39.7031 52.0938 39.5
L44.9219 10.6875
Q44.1875 7.85938 44.1875 5.8125
Q44.1875 1.51562 47.125 1.51562
Q50.25 1.51562 51.8281 5.375
Q53.4219 9.23438 54.5938 14.7031
Q54.7812 15.2812 55.4219 15.2812
L56.5938 15.2812
Q56.9844 15.2812 57.25 14.9688
Q57.5156 14.6562 57.5156 14.3125
Q55.7656 7.32812 53.6875 3.09375
Q51.6094 -1.125 46.9219 -1.125
Q43.6094 -1.125 41.0469 0.78125
Q38.4844 2.6875 37.7031 5.90625
Q35.2031 2.78125 31.8594 0.828125
Q28.5156 -1.125 24.8125 -1.125
Q18.5625 -1.125 14.9844 1.8125
L9.90625 -18.4062
Q9.625 -19.8281 8.45312 -20.7031
Q7.28125 -21.5781 5.8125 -21.5781
Q4.59375 -21.5781 3.6875 -20.8125
Q2.78125 -20.0625 2.78125 -18.7969" id="Cmmi10-b9"/>
     <path d="
M4.89062 31.3906
L31.2031 31.3906
L31.2031 23.3906
L4.89062 23.3906
z
" id="BitstreamVeraSans-Roman-2d"/>
     <path d="
M45.4062 27.9844
Q45.4062 37.75 41.375 43.1094
Q37.3594 48.4844 30.0781 48.4844
Q22.8594 48.4844 18.8281 43.1094
Q14.7969 37.75 14.7969 27.9844
Q14.7969 18.2656 18.8281 12.8906
Q22.8594 7.51562 30.0781 7.51562
Q37.3594 7.51562 41.375 12.8906
Q45.4062 18.2656 45.4062 27.9844
M54.3906 6.78125
Q54.3906 -7.17188 48.1875 -13.9844
Q42 -20.7969 29.2031 -20.7969
Q24.4688 -20.7969 20.2656 -20.0938
Q16.0625 -19.3906 12.1094 -17.9219
L12.1094 -9.1875
Q16.0625 -11.3281 19.9219 -12.3438
Q23.7812 -13.375 27.7812 -13.375
Q36.625 -13.375 41.0156 -8.76562
Q45.4062 -4.15625 45.4062 5.17188
L45.4062 9.625
Q42.625 4.78125 38.2812 2.39062
Q33.9375 0 27.875 0
Q17.8281 0 11.6719 7.65625
Q5.51562 15.3281 5.51562 27.9844
Q5.51562 40.6719 11.6719 48.3281
Q17.8281 56 27.875 56
Q33.9375 56 38.2812 53.6094
Q42.625 51.2188 45.4062 46.3906
L45.4062 54.6875
L54.3906 54.6875
z
" id="BitstreamVeraSans-Roman-67"/>
     <path d="
M59.5156 10.4062
L59.5156 29.9844
L43.4062 29.9844
L43.4062 38.0938
L69.2812 38.0938
L69.2812 6.78125
Q63.5781 2.73438 56.6875 0.65625
Q49.8125 -1.42188 42 -1.42188
Q24.9062 -1.42188 15.25 8.5625
Q5.60938 18.5625 5.60938 36.375
Q5.60938 54.25 15.25 64.2344
Q24.9062 74.2188 42 74.2188
Q49.125 74.2188 55.5469 72.4531
Q61.9688 70.7031 67.3906 67.2812
L67.3906 56.7812
Q61.9219 61.4219 55.7656 63.7656
Q49.6094 66.1094 42.8281 66.1094
Q29.4375 66.1094 22.7188 58.6406
Q16.0156 51.1719 16.0156 36.375
Q16.0156 21.625 22.7188 14.1562
Q29.4375 6.6875 42.8281 6.6875
Q48.0469 6.6875 52.1406 7.59375
Q56.25 8.5 59.5156 10.4062" id="BitstreamVeraSans-Roman-47"/>
     <path d="
M5.32812 1.70312
Q5.32812 2.29688 5.42188 2.59375
L14.9844 41.0156
Q15.375 42.4375 16.5469 43.3125
Q17.7188 44.1875 19.1875 44.1875
Q20.4531 44.1875 21.3281 43.4219
Q22.2188 42.6719 22.2188 41.4062
Q22.2188 41.1094 22.1875 40.9375
Q22.1719 40.7656 22.125 40.5781
L18.5 26.125
Q22.5156 27.4375 29.1562 32.9844
Q35.7969 38.5312 39.1875 40.8125
Q42.5781 43.1094 47.5156 43.1094
Q49.125 43.1094 50.2188 42.1094
Q51.3125 41.1094 51.3125 39.4062
Q51.3125 37.0625 49.625 35.4219
Q47.9531 33.7969 45.6094 33.7969
Q44 33.7969 42.8906 34.8438
Q41.7969 35.8906 41.7969 37.5
Q41.7969 38.625 42.1875 39.4062
Q39.7969 38.4219 37.2812 36.6562
Q34.7656 34.9062 32.7188 33.125
Q30.6719 31.3438 27.7812 28.9531
Q24.9062 26.5625 22.6094 25.2969
Q26.7031 25.2969 31 24.4062
Q35.2969 23.5312 38.4531 21.1875
Q41.6094 18.8438 41.6094 14.7969
Q41.6094 13.1875 41.2188 12.0156
Q40.2812 8.01562 40.2812 6
Q40.2812 1.51562 43.4062 1.51562
Q46.9688 1.51562 48.875 5.46875
Q50.7812 9.42188 52 14.7031
Q52.2031 15.2812 52.7812 15.2812
L54 15.2812
Q54.3906 15.2812 54.6406 15.0156
Q54.8906 14.75 54.8906 14.4062
Q54.8906 14.3125 54.7812 14.1094
Q51.125 -1.125 43.2188 -1.125
Q40.375 -1.125 38.2031 0.1875
Q36.0312 1.51562 34.8594 3.78125
Q33.6875 6.0625 33.6875 8.89062
Q33.6875 10.6875 34.0781 12.2031
Q34.4219 13.5781 34.4219 14.5
Q34.4219 17.7188 31.5625 19.5781
Q28.7188 21.4375 24.8281 22.1094
Q20.9531 22.7969 17.5781 22.7969
L12.5 2.20312
Q12.1562 0.828125 10.9531 -0.140625
Q9.76562 -1.125 8.29688 -1.125
Q7.07812 -1.125 6.20312 -0.34375
Q5.32812 0.4375 5.32812 1.70312" id="Cmmi10-2219"/>
     <path d="
M20.0156 -1.51562
Q16.5469 -1.51562 13.5625 -0.21875
Q10.5938 1.07812 8.375 3.51562
Q6.15625 5.95312 5.07812 8.95312
Q4 11.9688 4 15.4844
Q4 21.7344 6.95312 27.6094
Q9.90625 33.5 15.0156 37.7969
Q20.125 42.0938 26.125 43.6094
Q23.1875 49.0312 21.6562 52.9531
Q20.125 56.8906 20.125 60.9844
Q20.125 64.0156 21.5312 66.3281
Q22.9531 68.6562 25.4375 69.9688
Q27.9375 71.2969 31 71.2969
Q33.9844 71.2969 42.8281 69.2812
Q45.125 68.75 45.125 66.6094
Q45.125 64.9375 43.8906 63.5625
Q42.6719 62.2031 41.0156 62.2031
Q39.7969 62.2031 38.8125 62.7656
Q37.8438 63.3281 35.7344 64.7344
Q33.6406 66.1562 31.9844 66.9062
Q30.3281 67.6719 28.5156 67.6719
Q26.4688 67.6719 24.8281 66.4219
Q23.1875 65.1875 23.1875 63.1875
Q23.1875 60.0156 26 55.8906
Q28.8125 51.7656 33.9844 45.3125
Q39.8906 37.7969 39.8906 28.7188
Q39.8906 24.2188 38.5938 18.9844
Q37.3125 13.7656 34.8438 9.125
Q32.375 4.5 28.5312 1.48438
Q24.7031 -1.51562 20.0156 -1.51562
M20.2188 1.21875
Q24.125 1.21875 26.9219 5.26562
Q29.7344 9.32812 31.1719 14.9219
Q32.625 20.5156 32.625 24.3125
Q32.625 31.7812 27.3906 41.1094
Q22.125 39.6562 18.3125 34.9688
Q14.5 30.2812 12.5469 24.1719
Q10.5938 18.0625 10.5938 12.5938
Q10.5938 7.8125 13.0781 4.51562
Q15.5781 1.21875 20.2188 1.21875" id="Cmmi10-b1"/>
     <path d="
M11.7188 12.4062
L22.0156 12.4062
L22.0156 4
L14.0156 -11.625
L7.71875 -11.625
L11.7188 4
z
" id="BitstreamVeraSans-Roman-2c"/>
     <path d="
M9.28125 0
L9.28125 3.51562
Q21.7812 3.51562 21.7812 6.6875
L21.7812 59.1875
Q16.6094 56.6875 8.6875 56.6875
L8.6875 60.2031
Q20.9531 60.2031 27.2031 66.6094
L28.6094 66.6094
Q28.9531 66.6094 29.2656 66.3281
Q29.5938 66.0625 29.5938 65.7188
L29.5938 6.6875
Q29.5938 3.51562 42.0938 3.51562
L42.0938 0
z
" id="Cmr10-31"/>
     <path d="
M11.7188 12.4062
L22.0156 12.4062
L22.0156 0
L11.7188 0
z

M11.7188 51.7031
L22.0156 51.7031
L22.0156 39.3125
L11.7188 39.3125
z
" id="BitstreamVeraSans-Roman-3a"/>
     <path d="
M34.2812 27.4844
Q23.3906 27.4844 19.1875 25
Q14.9844 22.5156 14.9844 16.5
Q14.9844 11.7188 18.1406 8.90625
Q21.2969 6.10938 26.7031 6.10938
Q34.1875 6.10938 38.7031 11.4062
Q43.2188 16.7031 43.2188 25.4844
L43.2188 27.4844
z

M52.2031 31.2031
L52.2031 0
L43.2188 0
L43.2188 8.29688
Q40.1406 3.32812 35.5469 0.953125
Q30.9531 -1.42188 24.3125 -1.42188
Q15.9219 -1.42188 10.9531 3.29688
Q6 8.01562 6 15.9219
Q6 25.1406 12.1719 29.8281
Q18.3594 34.5156 30.6094 34.5156
L43.2188 34.5156
L43.2188 35.4062
Q43.2188 41.6094 39.1406 45
Q35.0625 48.3906 27.6875 48.3906
Q23 48.3906 18.5469 47.2656
Q14.1094 46.1406 10.0156 43.8906
L10.0156 52.2031
Q14.9375 54.1094 19.5781 55.0469
Q24.2188 56 28.6094 56
Q40.4844 56 46.3438 49.8438
Q52.2031 43.7031 52.2031 31.2031" id="BitstreamVeraSans-Roman-61"/>
     <path d="
M2.6875 -19.3906
Q2.39062 -19.3906 2.14062 -19.0469
Q1.90625 -18.7031 1.90625 -18.4062
L17.2812 43.4062
Q18.6094 48.3906 21.1406 53.0781
Q23.6875 57.7656 27.5156 61.7969
Q31.3438 65.8281 35.9375 68.1719
Q40.5312 70.5156 45.7031 70.5156
Q49.4219 70.5156 52.4219 68.875
Q55.4219 67.2344 57.1562 64.2812
Q58.8906 61.3281 58.8906 57.625
Q58.8906 54.0469 57.5156 50.7969
Q56.1562 47.5625 53.7031 44.75
Q51.2656 41.9375 48.4844 40.1875
Q50.0938 39.1562 51.3594 37.5625
Q52.6406 35.9844 53.4219 34.25
Q54.2031 32.5156 54.6406 30.3906
Q55.0781 28.2656 55.0781 26.4219
Q55.0781 21.2969 52.875 16.3125
Q50.6875 11.3281 46.8906 7.26562
Q43.1094 3.21875 38.2188 0.84375
Q33.3438 -1.51562 28.2188 -1.51562
Q22.6094 -1.51562 18.1094 1.5625
Q13.625 4.64062 11.9219 9.90625
L4.6875 -18.7969
Q4.6875 -19.3906 3.90625 -19.3906
z

M28.4219 1.21875
Q32.9062 1.21875 36.5469 4.17188
Q40.1875 7.125 42.5469 11.5938
Q44.9219 16.0625 46.1562 21.0625
Q47.4062 26.0781 47.4062 30.1719
Q47.4062 35.25 44.4844 38.1875
Q41.0625 36.9219 37.7969 36.9219
Q29.8906 36.9219 29.8906 39.5938
Q29.8906 43.1094 38.9219 43.1094
Q42.1406 43.1094 44.8281 42.0938
Q46.9688 43.75 48.7188 46.9688
Q50.4844 50.2031 51.3906 53.7188
Q52.2969 57.2344 52.2969 60.2969
Q52.2969 63.5781 50.5625 65.75
Q48.8281 67.9219 45.5156 67.9219
Q39.4062 67.9219 34.1562 64.1562
Q28.9062 60.4062 25.2969 54.6562
Q21.6875 48.9219 20.125 42.8281
L14.5938 20.7031
Q14.0625 18.4062 13.9219 15.5781
Q13.9219 9.32812 18.0156 5.26562
Q22.125 1.21875 28.4219 1.21875
M32.9062 39.8906
Q34.4219 39.5 37.8906 39.5
Q39.5938 39.5 41.3125 40.0938
Q41.2188 40.1875 40.9219 40.1875
Q39.8438 40.4844 38.625 40.4844
Q34.0781 40.4844 32.9062 39.8906" id="Cmmi10-af"/>
     <path d="
M7.51562 13.2812
Q6.6875 13.2812 6.14062 13.9062
Q5.60938 14.5469 5.60938 15.2812
Q5.60938 16.1094 6.14062 16.6875
Q6.6875 17.2812 7.51562 17.2812
L70.3125 17.2812
Q71.0469 17.2812 71.5781 16.6875
Q72.125 16.1094 72.125 15.2812
Q72.125 14.5469 71.5781 13.9062
Q71.0469 13.2812 70.3125 13.2812
z

M7.51562 32.7188
Q6.6875 32.7188 6.14062 33.2969
Q5.60938 33.8906 5.60938 34.7188
Q5.60938 35.4531 6.14062 36.0781
Q6.6875 36.7188 7.51562 36.7188
L70.3125 36.7188
Q71.0469 36.7188 71.5781 36.0781
Q72.125 35.4531 72.125 34.7188
Q72.125 33.8906 71.5781 33.2969
Q71.0469 32.7188 70.3125 32.7188
z
" id="Cmr10-3d"/>
    </defs>
    <g transform="translate(139.896 38.2)scale(0.144 -0.144)">
     <use transform="translate(0.0 0.78125)" xlink:href="#BitstreamVeraSans-Roman-47"/>
     <use transform="translate(77.490234375 0.78125)" xlink:href="#BitstreamVeraSans-Roman-56"/>
     <use transform="translate(145.8984375 0.78125)" xlink:href="#BitstreamVeraSans-Roman-2d"/>
     <use transform="translate(181.982421875 0.78125)" xlink:href="#BitstreamVeraSans-Roman-67"/>
     <use transform="translate(245.458984375 0.78125)" xlink:href="#BitstreamVeraSans-Roman-61"/>
     <use transform="translate(306.73828125 0.78125)" xlink:href="#BitstreamVeraSans-Roman-6d"/>
     <use transform="translate(404.150390625 0.78125)" xlink:href="#BitstreamVeraSans-Roman-6d"/>
     <use transform="translate(501.5625 0.78125)" xlink:href="#BitstreamVeraSans-Roman-61"/>
     <use transform="translate(562.841796875 0.78125)" xlink:href="#BitstreamVeraSans-Roman-3a"/>
     <use transform="translate(596.533203125 0.78125)" xlink:href="#BitstreamVeraSans-Roman-20"/>
     <use transform="translate(628.3203125 0.78125)" xlink:href="#Cmmi10-2219"/>
     <use transform="translate(703.49609375 0.78125)" xlink:href="#Cmr10-3d"/>
     <use transform="translate(787.5546875 0.78125)" xlink:href="#Cmr10-30"/>
     <use transform="translate(837.5546875 0.78125)" xlink:href="#Cmmi10-3a"/>
     <use transform="translate(866.09765625 0.78125)" xlink:href="#Cmr10-32"/>
     <use transform="translate(916.09765625 0.78125)" xlink:href="#Cmr10-35"/>
     <use transform="translate(966.09765625 0.78125)" xlink:href="#BitstreamVeraSans-Roman-20"/>
     <use transform="translate(997.884765625 0.78125)" xlink:href="#Cmmi10-ba"/>
     <use transform="translate(1064.857421875 0.78125)" xlink:href="#Cmr10-3d"/>
     <use transform="translate(1148.916015625 0.78125)" xlink:href="#Cmr10-34"/>
     <use transform="translate(1198.916015625 0.78125)" xlink:href="#Cmmi10-3a"/>
     <use transform="translate(1227.458984375 0.78125)" xlink:href="#Cmr10-30"/>
     <use transform="translate(1277.458984375 0.78125)" xlink:href="#BitstreamVeraSans-Roman-20"/>
     <use transform="translate(1309.24609375 0.78125)" xlink:href="#Cmmi10-b1"/>
     <use transform="translate(1371.189453125 0.78125)" xlink:href="#Cmr10-3d"/>
     <use transform="translate(1455.248046875 0.78125)" xlink:href="#Cmr10-31"/>
     <use transform="translate(1505.248046875 0.78125)" xlink:href="#Cmmi10-3a"/>
     <use transform="translate(1533.791015625 0.78125)" xlink:href="#Cmr10-30"/>
     <use transform="translate(1583.791015625 0.78125)" xlink:href="#BitstreamVeraSans-Roman-20"/>
     <use transform="translate(1615.578125 0.78125)" xlink:href="#Cmmi10-af"/>
     <use transform="translate(1689.630859375 0.78125)" xlink:href="#Cmr10-3d"/>
     <use transform="translate(1773.689453125 0.78125)" xlink:href="#Cmr10-32"/>
     <use transform="translate(1823.689453125 0.78125)" xlink:href="#Cmmi10-3a"/>
     <use transform="translate(1852.232421875 0.78125)" xlink:href="#Cmr10-30"/>
     <use transform="translate(1902.232421875 0.78125)" xlink:href="#BitstreamVeraSans-Roman-2c"/>
     <use transform="translate(1934.01953125 0.78125)" xlink:href="#BitstreamVeraSans-Roman-20"/>
     <use transform="translate(1965.806640625 0.78125)" xlink:href="#Cmmi10-b9"/>
     <use transform="translate(2043.5703125 0.78125)" xlink:href="#Cmr10-3d"/>
     <use transform="translate(2127.62890625 0.78125)" xlink:href="#Cmr10-30"/>
     <use transform="translate(2177.62890625 0.78125)" xlink:href="#Cmmi10-3a"/>
     <use transform="translate(2206.171875 0.78125)" xlink:href="#Cmr10-30"/>
    </g>
   </g>
  </g>
 </g>
 <defs>
  <clipPath id="p01a569de64">
   <rect height="345.6" width="432.0" x="86.4" y="43.2"/>
  </clipPath>
 </defs>
</svg>
